<mxfile host="app.diagrams.net" modified="2023-07-13T07:44:25.870Z" agent="Mozilla/5.0 (X11; Linux x86_64) AppleWebKit/537.36 (KHTML, like Gecko) Chrome/114.0.0.0 Safari/537.36" version="21.6.2" etag="Exq0I4EEfxYY2OHHxwD_" type="github">
  <diagram name="Page-1" id="057Zk1PH_grwiXIh6uA6">
    <mxGraphModel>
      <root>
        <mxCell id="0" />
        <mxCell id="1" parent="0" />
      </root>
    </mxGraphModel>
  </diagram>
</mxfile>
